<svg width="512" height="512" viewBox="0 0 512 512" fill="none" xmlns="http://www.w3.org/2000/svg">
<path d="M142.82 476.627H231.582M231.582 476.627H320.345H232.457V351.135L347.701 219.084M231.582 476.627V351.135L117.138 219.084M117.138 219.084L44 134.694H303.729H421.351L347.701 219.084M117.138 219.084H347.701" stroke="#084482" stroke-width="40"/>
<path d="M290.612 134.694C290.612 115.441 296.187 96.5998 306.663 80.4465C317.14 64.2933 332.069 51.5191 349.648 43.6673C367.228 35.8154 386.705 33.2218 405.726 36.1997C424.747 39.1777 442.5 47.5998 456.838 60.4486C471.176 73.2974 481.488 90.0231 486.526 108.605C491.564 127.187 491.114 146.831 485.23 165.163C479.346 183.495 468.279 199.731 453.367 211.909C438.455 224.088 420.336 231.688 401.198 233.791" stroke="#084482" stroke-width="40" stroke-linejoin="round"/>
</svg>
