<svg id="Layer_1" xmlns="http://www.w3.org/2000/svg" viewBox="25 -115 154 154"><style>.st0{fill:#7b858e}.st1{fill:#fff}</style><g id="Layer_3"><circle id="XMLID_1_" class="st0" cx="102" cy="-38" r="75"/></g><g id="Artwork"><path id="XMLID_2_" class="st1" d="M73-63.1l64 7.8-4.5 32.8H81.7c-1.2.6-8.7 5.3-8.7 11.2 0 3.7 2.1 5 3.3 5.5 1-2.8 3.8-5.4 7.6-5.4 4.3 0 7.1 3.2 7.7 6h31c.5-2.3 3.1-6 7.7-6 5 0 7.9 4.3 7.9 7.7 0 3.7-3.1 7.7-7.9 7.7-4.3 0-7.1-3.2-7.7-6h-31c-.6 2.8-3.4 6-7.7 6S76.6 1 76.1-2.4c-1-.4-6.3-2.2-6.3-9 0-7.4 8.3-12.8 8.3-12.8l-7.9-37.4s-11-11.4-11.6-12c-.5-.5-.7-1.6 0-2.3.7-.7 1.8-.5 2.3 0 .2.5 12.1 12.8 12.1 12.8zM83.7.4c2.1 0 3.7-1.7 3.7-3.7S85.7-7 83.7-7 80-5.2 80-3.3 81.6.4 83.7.4zm46.6 0c2.1 0 3.7-1.7 3.7-3.7S132.3-7 130.3-7s-3.7 1.7-3.7 3.7 1.8 3.7 3.7 3.7z"/></g></svg>