<svg id="WhatsApp_Logo" data-name="WhatsApp Logo" xmlns="http://www.w3.org/2000/svg" xmlns:xlink="http://www.w3.org/1999/xlink" viewBox="0 0 128 128"><defs><style>.cls-1{fill:#88c551;}.cls-2{clip-path:url(#clip-path);}.cls-3{isolation:isolate;}.cls-4{clip-path:url(#clip-path-2);}.cls-5{clip-path:url(#clip-path-3);}.cls-6{fill:#fff;}</style><clipPath id="clip-path"><rect class="cls-1" x="8" y="7.46" width="112" height="112" rx="9.36"/></clipPath><clipPath id="clip-path-2"><rect class="cls-1" x="-3.67" y="-4.21" width="135.33" height="137.67"/></clipPath><clipPath id="clip-path-3"><rect class="cls-1" x="8" y="7.46" width="112" height="112"/></clipPath></defs><title>allchannellogos-12mar2019</title><rect class="cls-1" x="8" y="7.46" width="112" height="112" rx="9.36"/><g class="cls-2"><g class="cls-3"><rect class="cls-1" x="-3.67" y="-4.21" width="135.33" height="137.67"/><g class="cls-4"><rect class="cls-1" x="8" y="7.46" width="112" height="112"/><g class="cls-5"><rect class="cls-1" x="-3.67" y="-4.21" width="135.33" height="135.33"/></g></g></g></g><path class="cls-6" d="M64,31.82c-19.41,0-34.88,14.3-34.88,32a31.49,31.49,0,0,0,4.24,15.47,3,3,0,0,1,.29,2.48L29.09,94.14A1.51,1.51,0,0,0,31,96l12.55-4.81a3.05,3.05,0,0,1,2.48.29,37.64,37.64,0,0,0,18.25,4.67C83.38,96,99,81.73,99,64.07,98.85,46.12,83.24,31.82,64,31.82ZM50,69.18a6.35,6.35,0,0,1-1.46,1.9,7.86,7.86,0,0,1-2.18,1.17,6.91,6.91,0,0,1-2.49.29A7.87,7.87,0,0,1,40.62,72a7.21,7.21,0,0,1-2.77-1.89l-.29-.3c-.15-.14,0-.43.29-.73l2.34-2.18c.29-.3.58-.3.73-.15a2.48,2.48,0,0,1,.29.44,3.92,3.92,0,0,0,1.16,1,3.18,3.18,0,0,0,2.34.29,1.5,1.5,0,0,0,.73-.29l.44-.44a.9.9,0,0,0,.14-.58c0-.59-.14-.73-.29-.88a2.87,2.87,0,0,0-1.31-.73c-.59-.14-1.17-.44-1.9-.58-.73-.29-1.46-.59-2-.88a5.58,5.58,0,0,1-1.61-1.6,5.19,5.19,0,0,1-.73-2.78,5,5,0,0,1,.59-2.62,4.5,4.5,0,0,1,1.6-1.75,5.18,5.18,0,0,1,2.19-1,9.3,9.3,0,0,1,5.25.15A9.59,9.59,0,0,1,50,55.61l.44.29c.29.15.15.58-.14.88L48.07,59a.72.72,0,0,1-1,0c-.29-.15-.43-.44-.58-.44a4,4,0,0,0-2.63-.44.78.78,0,0,0-.58.29l-.44.44c-.14.15-.14.29-.14.58a.84.84,0,0,0,.29.73,5.25,5.25,0,0,0,1.31.73c.59.15,1.17.44,1.9.59s1.46.58,2,.87a5.61,5.61,0,0,1,1.61,1.61,5.16,5.16,0,0,1,.73,2.77A4.77,4.77,0,0,1,50,69.18Zm24.23,2a1.5,1.5,0,0,1-1.61,1.46H71.13c-.88,0-1.32-.58-1.32-1.46V62.61a.76.76,0,0,0-1.46-.29l-2.48,6.57a1.27,1.27,0,0,1-1.31.87h-1a1.48,1.48,0,0,1-1.32-.87L59.6,62.32a.76.76,0,0,0-1.46.29v8.61a1.5,1.5,0,0,1-1.61,1.46H55.07c-.87,0-1.31-.58-1.31-1.46v-16a1.34,1.34,0,0,1,1.31-1.46h3.8a1.48,1.48,0,0,1,1.31.88l2.92,7.59c.29.58,1.17.58,1.31,0l2.92-7.59a1.27,1.27,0,0,1,1.31-.88h3.94a1.5,1.5,0,0,1,1.61,1.46Zm15.32-1.89a4.91,4.91,0,0,1-1.6,1.89,7.8,7.8,0,0,1-2.19,1.17,7.3,7.3,0,0,1-2.48.29A7.8,7.8,0,0,1,80,72.1a7.27,7.27,0,0,1-2.78-1.9L77,69.91c-.14-.15,0-.44.29-.73L79.59,67c.29-.29.58-.29.73-.14a1.79,1.79,0,0,1,.29.43,4,4,0,0,0,1.17,1,3.35,3.35,0,0,0,2.33.29c.3-.15.59-.15.73-.29l.44-.44a3.24,3.24,0,0,0,.15-.59c0-.58-.15-.73-.29-.87a2.82,2.82,0,0,0-1.32-.73c-.58-.15-1.17-.44-1.9-.59s-1.45-.58-2-.87a6.19,6.19,0,0,1-1.75-1.61,5.16,5.16,0,0,1-.73-2.77A5.09,5.09,0,0,1,78,57.21a4.68,4.68,0,0,1,1.61-1.75,6,6,0,0,1,2.19-1,9.12,9.12,0,0,1,5.25.15,6.14,6.14,0,0,1,2.19,1.31l.44.44c.29.14.15.58-.15.87L87.32,59.4a.71.71,0,0,1-1,0c-.29-.14-.43-.43-.58-.43a4,4,0,0,0-2.63-.44.73.73,0,0,0-.58.29l-.44.44a.84.84,0,0,0-.15.58.85.85,0,0,0,.3.73,5.25,5.25,0,0,0,1.31.73c.58.15,1.17.44,1.9.58.73.3,1.46.59,2,.88a9.2,9.2,0,0,1,1.75,1.6A5.19,5.19,0,0,1,90,67.14,3.23,3.23,0,0,1,89.51,69.33Z"/></svg>